<?xml version="1.0" encoding="UTF-8"?>
<svg version="1.1" xmlns="http://www.w3.org/2000/svg" width="121" height="106">
<path d="M0 0 C2.68131251 1.93817721 4.91231976 4.01454509 7.0859375 6.5078125 C7.8490625 7.3740625 8.6121875 8.2403125 9.3984375 9.1328125 C11.0859375 11.5078125 11.0859375 11.5078125 11.0859375 14.5078125 C11.7459375 14.5078125 12.4059375 14.5078125 13.0859375 14.5078125 C18.31255985 23.56729124 19.61672958 33.14821535 19.0859375 43.5078125 C19.07949219 44.31992187 19.07304688 45.13203125 19.06640625 45.96875 C18.72868556 54.09906282 15.16381987 59.0879432 9.8359375 65.0078125 C8.9284375 65.8328125 8.0209375 66.6578125 7.0859375 67.5078125 C6.35375 68.22066406 5.6215625 68.93351562 4.8671875 69.66796875 C-0.36901255 74.63751047 -5.04766839 78.21901446 -11.9140625 80.5078125 C-13.0896875 80.9203125 -14.2653125 81.3328125 -15.4765625 81.7578125 C-27.91321572 84.54920561 -41.99800704 83.19605513 -53.00390625 76.82421875 C-54.89512466 75.52086373 -56.42591702 74.25719982 -57.9140625 72.5078125 C-57.9140625 71.8478125 -57.9140625 71.1878125 -57.9140625 70.5078125 C-58.7803125 70.1365625 -58.7803125 70.1365625 -59.6640625 69.7578125 C-62.26314908 68.31387551 -63.99243088 66.77259263 -65.9140625 64.5078125 C-65.9140625 63.5178125 -65.9140625 62.5278125 -65.9140625 61.5078125 C-66.5740625 61.5078125 -67.2340625 61.5078125 -67.9140625 61.5078125 C-68.9040625 58.5378125 -68.9040625 58.5378125 -69.9140625 55.5078125 C-70.5740625 55.5078125 -71.2340625 55.5078125 -71.9140625 55.5078125 C-75.02455116 44.29977073 -74.63890293 30.82638046 -71.9140625 19.5078125 C-71.2540625 19.5078125 -70.5940625 19.5078125 -69.9140625 19.5078125 C-69.8521875 18.6621875 -69.7903125 17.8165625 -69.7265625 16.9453125 C-68.73256432 12.73993559 -66.89243986 9.64392324 -63.9140625 6.5078125 C-63.2540625 6.5078125 -62.5940625 6.5078125 -61.9140625 6.5078125 C-61.7284375 5.9509375 -61.5428125 5.3940625 -61.3515625 4.8203125 C-59.2411055 1.42522949 -56.2429832 -0.36407988 -52.9140625 -2.4921875 C-52.12386719 -3.00265625 -51.33367188 -3.513125 -50.51953125 -4.0390625 C-34.71727865 -12.85231282 -14.59490103 -9.39930519 0 0 Z " fill="#DDA214" transform="translate(89.9140625,18.4921875)"/>
<path d="M0 0 C6.40679066 4.21424452 11.03303233 9.07884537 15.26171875 15.421875 C15.67578125 17.875 15.67578125 17.875 15.88671875 20.671875 C15.96019531 21.64253906 16.03367187 22.61320312 16.109375 23.61328125 C16.28745314 26.89631162 16.33475106 30.13542106 16.26171875 33.421875 C15.60171875 33.421875 14.94171875 33.421875 14.26171875 33.421875 C14.26171875 36.721875 14.26171875 40.021875 14.26171875 43.421875 C13.60171875 43.421875 12.94171875 43.421875 12.26171875 43.421875 C12.59171875 44.411875 12.92171875 45.401875 13.26171875 46.421875 C11.4609375 48.98046875 11.4609375 48.98046875 8.94921875 51.859375 C5.07730236 56.29819684 5.07730236 56.29819684 2.26171875 61.421875 C0.94171875 61.421875 -0.37828125 61.421875 -1.73828125 61.421875 C-2.23328125 62.906875 -2.23328125 62.906875 -2.73828125 64.421875 C-5.21328125 64.916875 -5.21328125 64.916875 -7.73828125 65.421875 C-8.06828125 64.101875 -8.39828125 62.781875 -8.73828125 61.421875 C-7.74828125 61.091875 -6.75828125 60.761875 -5.73828125 60.421875 C-3.70397277 53.52782959 -3.19806117 46.57266267 -2.73828125 39.421875 C-4.05828125 39.421875 -5.37828125 39.421875 -6.73828125 39.421875 C-6.96515625 40.411875 -7.19203125 41.401875 -7.42578125 42.421875 C-9.00207484 47.88339928 -11.67167347 52.69039281 -16.05078125 56.359375 C-20.74995847 58.21718925 -24.78512011 59.14369542 -29.61328125 57.359375 C-32.26025016 54.94596217 -32.89776754 52.86034019 -33.73828125 49.421875 C-34.72828125 49.421875 -35.71828125 49.421875 -36.73828125 49.421875 C-39.80431899 44.14829009 -39.80431899 44.14829009 -39.48828125 40.671875 C-38.73828125 38.421875 -38.73828125 38.421875 -37.73828125 36.421875 C-39.56359375 36.5765625 -39.56359375 36.5765625 -41.42578125 36.734375 C-44.93431747 36.72188911 -45.71700294 36.43620529 -48.80078125 34.359375 C-50.73828125 31.421875 -50.73828125 31.421875 -50.80078125 27.984375 C-49.15004682 22.44955954 -46.1665743 18.13592723 -41.73828125 14.421875 C-40.74828125 14.421875 -39.75828125 14.421875 -38.73828125 14.421875 C-38.73828125 13.761875 -38.73828125 13.101875 -38.73828125 12.421875 C-33.4499105 9.79840126 -29.47968322 8.99444129 -23.61328125 9.171875 C-22.92363281 9.17703125 -22.23398437 9.1821875 -21.5234375 9.1875 C-17.81898647 9.24416464 -14.34092398 9.55275496 -10.73828125 10.421875 C-10.73828125 9.761875 -10.73828125 9.101875 -10.73828125 8.421875 C-19.3380226 6.79019779 -30.08985306 5.32854624 -37.98828125 9.796875 C-39.24767467 10.6583001 -40.49849458 11.53246282 -41.73828125 12.421875 C-43.06033579 13.11063768 -44.39094706 13.78397784 -45.73828125 14.421875 C-45.73828125 15.081875 -45.73828125 15.741875 -45.73828125 16.421875 C-46.39828125 16.421875 -47.05828125 16.421875 -47.73828125 16.421875 C-48.02703125 16.999375 -48.31578125 17.576875 -48.61328125 18.171875 C-49.65494792 20.25520833 -50.69661458 22.33854167 -51.73828125 24.421875 C-52.73828125 22.421875 -53.73828125 20.421875 -54.73828125 18.421875 C-55.33640625 18.751875 -55.93453125 19.081875 -56.55078125 19.421875 C-58.73828125 20.421875 -58.73828125 20.421875 -61.73828125 20.421875 C-61.28566767 18.98256383 -60.82595146 17.54548501 -60.36328125 16.109375 C-60.10804687 15.30886719 -59.8528125 14.50835938 -59.58984375 13.68359375 C-58.73828125 11.421875 -58.73828125 11.421875 -56.73828125 8.421875 C-56.07828125 8.421875 -55.41828125 8.421875 -54.73828125 8.421875 C-54.55265625 7.865 -54.36703125 7.308125 -54.17578125 6.734375 C-52.05814233 3.32773848 -49.06160153 1.57949906 -45.73828125 -0.578125 C-44.91328125 -1.135 -44.08828125 -1.691875 -43.23828125 -2.265625 C-30.34996065 -9.03199332 -12.22064043 -7.04299391 0 0 Z " fill="#DFAB10" transform="translate(82.73828125,16.578125)"/>
<path d="M0 0 C15.46905536 -0.77024342 28.95604971 1.93908779 40.875 12.5625 C41.57625 13.366875 42.2775 14.17125 43 15 C43.763125 15.86625 44.52625 16.7325 45.3125 17.625 C47 20 47 20 47 23 C47.66 23 48.32 23 49 23 C54.22662235 32.05947874 55.53079208 41.64040285 55 52 C54.99355469 52.81210937 54.98710938 53.62421875 54.98046875 54.4609375 C54.64274806 62.59125032 51.07788237 67.5801307 45.75 73.5 C44.8425 74.325 43.935 75.15 43 76 C42.2678125 76.71285156 41.535625 77.42570312 40.78125 78.16015625 C35.54504995 83.12969797 30.86639411 86.71120196 24 89 C22.824375 89.4125 21.64875 89.825 20.4375 90.25 C8.00084678 93.04139311 -6.08394454 91.68824263 -17.08984375 85.31640625 C-18.98106216 84.01305123 -20.51185452 82.74938732 -22 81 C-22 80.34 -22 79.68 -22 79 C-22.86625 78.62875 -22.86625 78.62875 -23.75 78.25 C-26.34908658 76.80606301 -28.07836838 75.26478013 -30 73 C-30 72.01 -30 71.02 -30 70 C-30.66 70 -31.32 70 -32 70 C-32.99 67.03 -32.99 67.03 -34 64 C-34.66 64 -35.32 64 -36 64 C-37.32388229 57.56971459 -38.24794402 51.5705166 -38 45 C-37.67 45 -37.34 45 -37 45 C-36.8040625 45.96679688 -36.608125 46.93359375 -36.40625 47.9296875 C-34.59515669 56.06129769 -32.47478763 61.75477713 -26.70703125 68.046875 C-25 70 -25 70 -24 73 C-21.85593142 74.61662819 -21.85593142 74.61662819 -19.25 76.0625 C-18.38890625 76.56910156 -17.5278125 77.07570313 -16.640625 77.59765625 C-9.00691688 81.65165213 -1.70234095 83.32799093 6.875 83.1875 C8.03128906 83.1865332 8.03128906 83.1865332 9.2109375 83.18554688 C12.9077207 83.49782846 12.9077207 83.49782846 16 82 C17.53926964 81.75525023 19.08154977 81.52932911 20.625 81.3125 C26.17642119 80.25772997 29.14627418 77.99836968 33 74 C33.721875 73.319375 34.44375 72.63875 35.1875 71.9375 C37.12532854 69.92690345 37.12532854 69.92690345 39.125 67.25 C40.053125 66.13625 40.053125 66.13625 41 65 C41.66 65 42.32 65 43 65 C43.12117188 64.27554688 43.24234375 63.55109375 43.3671875 62.8046875 C43.53476563 61.83789062 43.70234375 60.87109375 43.875 59.875 C44.03742188 58.92367187 44.19984375 57.97234375 44.3671875 56.9921875 C45 54 45 54 46.046875 51.1171875 C48.63132574 42.66476254 48.05927784 32.13413794 44.26953125 24.1796875 C37.90334227 13.24943072 28.69210885 6.36154941 16.6171875 2.55859375 C11.15720813 1.39325487 5.56540044 1.22958266 0 1 C0 0.67 0 0.34 0 0 Z " fill="#44496D" transform="translate(54,10)"/>
<path d="M0 0 C2 1 2 1 3.1015625 3.59375 C6.11998793 15.03751947 3.79817642 26.09358981 0 37 C-0.33 37.99 -0.66 38.98 -1 40 C-2.62102968 41.71108689 -4.29503463 43.37253306 -6 45 C-6.78375 45.804375 -7.5675 46.60875 -8.375 47.4375 C-9.24125 48.283125 -10.1075 49.12875 -11 50 C-11.50144531 50.52078125 -12.00289063 51.0415625 -12.51953125 51.578125 C-16.70664576 55.61815118 -20.21639754 56.86876884 -25.9609375 57.67578125 C-27.98945346 57.79368801 -27.98945346 57.79368801 -29 59 C-43.17670011 59.83962233 -54.34458424 58.7172797 -66 50 C-66.99 49.34 -67.98 48.68 -69 48 C-70.02137457 46.34634594 -71.01612294 44.67623498 -72 43 C-72.99621669 41.76776504 -73.99659267 40.53888674 -75 39.3125 C-82.01231144 29.89297717 -81.59257992 19.24762266 -81 8 C-80.7131786 6.3247023 -80.40229992 4.65137629 -80 3 C-79.67 3 -79.34 3 -79 3 C-79.33 9.93 -79.66 16.86 -80 24 C-79.01 24 -78.02 24 -77 24 C-76.89042969 24.59167969 -76.78085938 25.18335937 -76.66796875 25.79296875 C-75.72820129 30.47652529 -74.62190335 33.94796756 -72 38 C-72 38.99 -72 39.98 -72 41 C-71.01 41 -70.02 41 -69 41 C-68.67 42.32 -68.34 43.64 -68 45 C-66.96875 45.12375 -65.9375 45.2475 -64.875 45.375 C-61.37883154 45.93889814 -58.31602373 46.78682059 -55 48 C-55 48.66 -55 49.32 -55 50 C-53.700625 50.433125 -53.700625 50.433125 -52.375 50.875 C-50.29299 51.56900333 -48.22516395 52.30993442 -46.1875 53.125 C-38.52605059 55.22814297 -32.25184673 53.83434855 -25 51 C-23.47923446 50.43731675 -21.95840493 49.8748064 -20.4375 49.3125 C-19.303125 48.879375 -18.16875 48.44625 -17 48 C-17.33 47.01 -17.66 46.02 -18 45 C-17.505 44.01 -17.505 44.01 -17 43 C-15.68 43 -14.36 43 -13 43 C-12.835 42.195625 -12.67 41.39125 -12.5 40.5625 C-10.64911455 36.16664705 -7.97492837 33.44570022 -4.6796875 30.05078125 C-2.68318054 28.05499538 -2.68318054 28.05499538 -3 25 C-2.34 25 -1.68 25 -1 25 C-1 21.7 -1 18.4 -1 15 C-0.34 15 0.32 15 1 15 C0.89171875 13.87851562 0.89171875 13.87851562 0.78125 12.734375 C0.6884375 11.74953125 0.595625 10.7646875 0.5 9.75 C0.4071875 8.77546875 0.314375 7.8009375 0.21875 6.796875 C0.04199832 4.53697847 0 2.26679807 0 0 Z " fill="#DC9C0C" transform="translate(98,35)"/>
<path d="M0 0 C4.84003813 -0.60500477 7.23611949 -0.2005618 11.1875 2.75 C12.47179679 3.81733792 13.74410228 4.89938681 15 6 C16.2375 6.99 16.2375 6.99 17.5 8 C19 10 19 10 19.625 12.625 C18.53126484 18.53116989 15.49121157 24.22961595 10.54296875 27.74609375 C7.01457741 29.48589962 3.92782425 30.11926592 0 30 C-2.875 28.9375 -2.875 28.9375 -5 27 C-6.3125 23.8125 -6.3125 23.8125 -7 21 C-7.99 21 -8.98 21 -10 21 C-13.03265941 15.78382582 -13.03265941 15.78382582 -12.8984375 12.5625 C-11.69647294 9.13428805 -9.93168422 7.8733491 -7.0625 5.6875 C-6.16660156 4.99011719 -5.27070312 4.29273438 -4.34765625 3.57421875 C-2 2 -2 2 0 2 C0 1.34 0 0.68 0 0 Z " fill="#E3C434" transform="translate(56,45)"/>
<path d="M0 0 C6.73464898 4.5435167 6.73464898 4.5435167 8.0859375 7.24609375 C7.0959375 7.24609375 6.1059375 7.24609375 5.0859375 7.24609375 C3.0859375 5.24609375 3.0859375 5.24609375 2.0859375 3.24609375 C-3.51394111 0.95523432 -8.74108947 1.1383777 -14.734375 1.2421875 C-18.55828052 1.24688517 -22.14179975 0.83782124 -25.9140625 0.24609375 C-25.9140625 0.90609375 -25.9140625 1.56609375 -25.9140625 2.24609375 C-26.52894531 2.37886719 -27.14382812 2.51164062 -27.77734375 2.6484375 C-28.98970703 2.91333984 -28.98970703 2.91333984 -30.2265625 3.18359375 C-31.02707031 3.35761719 -31.82757813 3.53164063 -32.65234375 3.7109375 C-35.0594635 4.24495534 -35.0594635 4.24495534 -37.9140625 5.24609375 C-34.80179055 5.24609375 -31.97254098 4.78982326 -28.9140625 4.24609375 C-31.63761522 6.36922689 -34.38447325 8.1537325 -37.4140625 9.80859375 C-38.166875 10.22238281 -38.9196875 10.63617187 -39.6953125 11.0625 C-41.75199963 12.1596412 -43.82356413 13.21509796 -45.9140625 14.24609375 C-45.9140625 14.90609375 -45.9140625 15.56609375 -45.9140625 16.24609375 C-46.5740625 16.24609375 -47.2340625 16.24609375 -47.9140625 16.24609375 C-48.2028125 16.82359375 -48.4915625 17.40109375 -48.7890625 17.99609375 C-49.83072917 20.07942708 -50.87239583 22.16276042 -51.9140625 24.24609375 C-52.9140625 22.24609375 -53.9140625 20.24609375 -54.9140625 18.24609375 C-55.5121875 18.57609375 -56.1103125 18.90609375 -56.7265625 19.24609375 C-58.9140625 20.24609375 -58.9140625 20.24609375 -61.9140625 20.24609375 C-61.46144892 18.80678258 -61.00173271 17.36970376 -60.5390625 15.93359375 C-60.28382812 15.13308594 -60.02859375 14.33257813 -59.765625 13.5078125 C-58.9140625 11.24609375 -58.9140625 11.24609375 -56.9140625 8.24609375 C-56.2540625 8.24609375 -55.5940625 8.24609375 -54.9140625 8.24609375 C-54.7284375 7.68921875 -54.5428125 7.13234375 -54.3515625 6.55859375 C-52.23392358 3.15195723 -49.23738278 1.40371781 -45.9140625 -0.75390625 C-45.0890625 -1.31078125 -44.2640625 -1.86765625 -43.4140625 -2.44140625 C-30.51598137 -9.21289884 -12.12637524 -7.29858242 0 0 Z " fill="#E1C318" transform="translate(82.9140625,16.75390625)"/>
<path d="M0 0 C0.69931641 -0.01224609 1.39863281 -0.02449219 2.11914062 -0.03710938 C6.53311655 -0.04949659 10.08881584 0.55960817 14.1875 2.1875 C14.1875 2.8475 14.1875 3.5075 14.1875 4.1875 C13.56705811 4.17702637 12.94661621 4.16655273 12.30737305 4.15576172 C9.49662323 4.11419114 6.6859381 4.08817067 3.875 4.0625 C2.41030273 4.03736328 2.41030273 4.03736328 0.91601562 4.01171875 C-0.49067383 4.00205078 -0.49067383 4.00205078 -1.92578125 3.9921875 C-3.22189331 3.97647705 -3.22189331 3.97647705 -4.54418945 3.96044922 C-7.09430721 4.03659832 -7.09430721 4.03659832 -9.8125 6.1875 C-11.1325 6.1875 -12.4525 6.1875 -13.8125 6.1875 C-13.8125 6.8475 -13.8125 7.5075 -13.8125 8.1875 C-14.555 8.620625 -15.2975 9.05375 -16.0625 9.5 C-20.5800597 12.27213891 -23.43636928 16.05828551 -24.8125 21.1875 C-24.74404626 24.35081465 -24.74404626 24.35081465 -23.8125 27.1875 C-20.91157498 29.12145001 -19.91575263 29.48881941 -16.625 29.8125 C-15.366875 29.93625 -14.10875 30.06 -12.8125 30.1875 C-13.01875 31.21875 -13.225 32.25 -13.4375 33.3125 C-13.82444403 37.3109216 -13.33133076 39.52443757 -11.8125 43.1875 C-10.8225 43.1875 -9.8325 43.1875 -8.8125 43.1875 C-8.4825 43.8475 -8.1525 44.5075 -7.8125 45.1875 C-6.8225 45.8475 -5.8325 46.5075 -4.8125 47.1875 C-5.4725 47.1875 -6.1325 47.1875 -6.8125 47.1875 C-6.8125 47.8475 -6.8125 48.5075 -6.8125 49.1875 C-5.9153125 49.373125 -5.9153125 49.373125 -5 49.5625 C-2.8125 50.1875 -2.8125 50.1875 0.1875 52.1875 C2.18626115 52.2889858 2.18626115 52.2889858 4.25 51.9375 C4.94222656 51.84984375 5.63445313 51.7621875 6.34765625 51.671875 C8.41915472 51.29169911 8.41915472 51.29169911 10.1875 49.1875 C11.1775 49.1875 12.1675 49.1875 13.1875 49.1875 C13.414375 48.383125 13.64125 47.57875 13.875 46.75 C14.308125 45.904375 14.74125 45.05875 15.1875 44.1875 C17.8125 43.375 17.8125 43.375 20.1875 43.1875 C18.95956489 52.48472299 18.95956489 52.48472299 16.6640625 54.57421875 C16.05304688 55.00347656 15.44203125 55.43273437 14.8125 55.875 C14.20664063 56.31199219 13.60078125 56.74898437 12.9765625 57.19921875 C11.1875 58.1875 11.1875 58.1875 8.1875 58.1875 C8.1875 58.8475 8.1875 59.5075 8.1875 60.1875 C0.83575194 60.74003221 -4.324083 59.69814108 -10.8125 56.1875 C-10.8125 55.5275 -10.8125 54.8675 -10.8125 54.1875 C-11.4725 54.1875 -12.1325 54.1875 -12.8125 54.1875 C-13.4725 52.2075 -14.1325 50.2275 -14.8125 48.1875 C-15.4725 48.1875 -16.1325 48.1875 -16.8125 48.1875 C-18.52823385 44.7560323 -17.59723767 40.79979047 -17.359375 37.03515625 C-17.50478787 33.98148268 -17.50478787 33.98148268 -20.21484375 32.40625 C-21.07207031 32.0040625 -21.92929687 31.601875 -22.8125 31.1875 C-24.625 29.625 -24.625 29.625 -25.8125 28.1875 C-25.8125 27.5275 -25.8125 26.8675 -25.8125 26.1875 C-26.4725 26.1875 -27.1325 26.1875 -27.8125 26.1875 C-27.52137831 19.76826669 -26.36034971 15.56649794 -22.8125 10.1875 C-22.1525 10.1875 -21.4925 10.1875 -20.8125 10.1875 C-20.8125 9.5275 -20.8125 8.8675 -20.8125 8.1875 C-18.73046875 6.49609375 -18.73046875 6.49609375 -16 4.625 C-15.10667969 4.00496094 -14.21335937 3.38492187 -13.29296875 2.74609375 C-8.92084648 -0.00111378 -5.00514865 0.00453776 0 0 Z " fill="#D29513" transform="translate(57.8125,22.8125)"/>
<path d="M0 0 C3.69583841 3.69583841 3.16081056 7.96103464 3.1875 13 C3.20167969 14.216875 3.21585937 15.43375 3.23046875 16.6875 C3.00977761 19.85946758 2.54912926 21.3194842 1 24 C0.71125 25.27875 0.4225 26.5575 0.125 27.875 C-1.7960891 35.74855457 -7.02141395 40.010353 -13 45 C-13.60328125 45.55171875 -14.2065625 46.1034375 -14.828125 46.671875 C-24.24585025 55.24115653 -35.40315497 56.58422763 -47.6171875 56.3125 C-53.04401497 56.03644265 -57.25536156 54.61357202 -62 52 C-62.94617188 51.52949219 -63.89234375 51.05898437 -64.8671875 50.57421875 C-69.9549019 47.96288523 -74.44231994 45.53910905 -78 41 C-78 40.01 -78 39.02 -78 38 C-78.66 38 -79.32 38 -80 38 C-80.66 36.02 -81.32 34.04 -82 32 C-82.66 32 -83.32 32 -84 32 C-85.32388229 25.56971459 -86.24794402 19.5705166 -86 13 C-85.67 13 -85.34 13 -85 13 C-84.8040625 13.96679688 -84.608125 14.93359375 -84.40625 15.9296875 C-82.59515669 24.06129769 -80.47478763 29.75477713 -74.70703125 36.046875 C-73 38 -73 38 -72 41 C-69.85593142 42.61662819 -69.85593142 42.61662819 -67.25 44.0625 C-66.38890625 44.56910156 -65.5278125 45.07570312 -64.640625 45.59765625 C-57.00691688 49.65165213 -49.70234095 51.32799093 -41.125 51.1875 C-39.96871094 51.1865332 -39.96871094 51.1865332 -38.7890625 51.18554688 C-35.0922793 51.49782846 -35.0922793 51.49782846 -32 50 C-30.46073036 49.75525023 -28.91845023 49.52932911 -27.375 49.3125 C-21.82357881 48.25772997 -18.85372582 45.99836968 -15 42 C-14.278125 41.319375 -13.55625 40.63875 -12.8125 39.9375 C-10.87467146 37.92690345 -10.87467146 37.92690345 -8.875 35.25 C-8.25625 34.5075 -7.6375 33.765 -7 33 C-6.34 33 -5.68 33 -5 33 C-4.87882812 32.27554688 -4.75765625 31.55109375 -4.6328125 30.8046875 C-4.46523437 29.83789062 -4.29765625 28.87109375 -4.125 27.875 C-3.96257812 26.92367187 -3.80015625 25.97234375 -3.6328125 24.9921875 C-3 22 -3 22 -1.96875 19.15625 C-0.77795479 15.27656238 -0.55007979 11.65913024 -0.375 7.625 C-0.33632812 6.88894531 -0.29765625 6.15289062 -0.2578125 5.39453125 C-0.16442002 3.59672594 -0.0811629 1.79839892 0 0 Z " fill="#6B1D08" transform="translate(102,42)"/>
<path d="M0 0 C3.39853084 0.40940212 6.52620355 0.5343242 9.9375 0.3125 C15.25064019 0.198647 19.05330031 2.70180044 23.375 5.5625 C23.375 6.2225 23.375 6.8825 23.375 7.5625 C24.4578125 7.5934375 24.4578125 7.5934375 25.5625 7.625 C29.69537516 9.00262505 31.16217508 11.95606619 33.375 15.5625 C33.045 16.2225 32.715 16.8825 32.375 17.5625 C31.715 17.2325 31.055 16.9025 30.375 16.5625 C29.385 18.5425 28.395 20.5225 27.375 22.5625 C26.385 22.5625 25.395 22.5625 24.375 22.5625 C24.375 21.9025 24.375 21.2425 24.375 20.5625 C23.715 20.5625 23.055 20.5625 22.375 20.5625 C21.88 18.5825 21.88 18.5825 21.375 16.5625 C20.715 16.5625 20.055 16.5625 19.375 16.5625 C18.88 14.5825 18.88 14.5825 18.375 12.5625 C17.385 12.5625 16.395 12.5625 15.375 12.5625 C15.375 11.2425 15.375 9.9225 15.375 8.5625 C14.83875 8.294375 14.3025 8.02625 13.75 7.75 C10.95833333 6.35416667 8.16666667 4.95833333 5.375 3.5625 C5.375 4.5525 5.375 5.5425 5.375 6.5625 C-1.95833333 6.5625 -9.29166667 6.5625 -16.625 6.5625 C-17.615 6.8925 -18.605 7.2225 -19.625 7.5625 C-19.625 6.9025 -19.625 6.2425 -19.625 5.5625 C-15.39550005 3.14564288 -12.50164009 2.21416856 -7.625 2.5625 C-7.625 1.9025 -7.625 1.2425 -7.625 0.5625 C-4.51920224 -0.47276592 -3.1695372 -0.40751193 0 0 Z " fill="#DFC214" transform="translate(64.625,16.4375)"/>
<path d="M0 0 C0.33 0 0.66 0 1 0 C0.67 6.93 0.34 13.86 0 21 C0.99 21 1.98 21 3 21 C3.10957031 21.59167969 3.21914063 22.18335937 3.33203125 22.79296875 C4.27179871 27.47652529 5.37809665 30.94796756 8 35 C8 35.99 8 36.98 8 38 C8.99 38 9.98 38 11 38 C11.33 39.32 11.66 40.64 12 42 C13.32 42.33 14.64 42.66 16 43 C16 43.99 16 44.98 16 46 C18.97 46.99 21.94 47.98 25 49 C25 49.66 25 50.32 25 51 C25.804375 50.979375 26.60875 50.95875 27.4375 50.9375 C30 51 30 51 31 52 C34.38830809 52.25292226 37.79087724 52.18523407 41.1875 52.1875 C42.13431641 52.19974609 43.08113281 52.21199219 44.05664062 52.22460938 C50.3517548 52.23778826 55.19406502 51.69661185 60.6875 48.375 C63 47 63 47 66 47 C66 46.34 66 45.68 66 45 C66.99 44.67 67.98 44.34 69 44 C69.33 43.01 69.66 42.02 70 41 C70.99 41 71.98 41 73 41 C73.33 39.68 73.66 38.36 74 37 C74.66 37 75.32 37 76 37 C76.268125 36.030625 76.53625 35.06125 76.8125 34.0625 C77.4003125 32.5465625 77.4003125 32.5465625 78 31 C78.99 30.67 79.98 30.34 81 30 C79.79618227 35.58133676 78.38702916 38.12309051 74 42 C73.21625 42.804375 72.4325 43.60875 71.625 44.4375 C70.75875 45.283125 69.8925 46.12875 69 47 C68.49855469 47.52078125 67.99710937 48.0415625 67.48046875 48.578125 C63.29335424 52.61815118 59.78360246 53.86876884 54.0390625 54.67578125 C52.01054654 54.79368801 52.01054654 54.79368801 51 56 C36.82329989 56.83962233 25.65541576 55.7172797 14 47 C13.01 46.34 12.02 45.68 11 45 C9.97862543 43.34634594 8.98387706 41.67623498 8 40 C7.00378331 38.76776504 6.00340733 37.53888674 5 36.3125 C-2.01231144 26.89297717 -1.59257992 16.24762266 -1 5 C-0.7131786 3.3247023 -0.40229992 1.65137629 0 0 Z " fill="#BA610F" transform="translate(18,38)"/>
<path d="M0 0 C2.9219519 1.6696868 3.64496133 2.74855162 4.55078125 5.94140625 C5.11150619 9.01689761 5.49069786 11.23941831 3.75 13.9375 C-0.20911225 16.34124672 -4.48920845 16.67570562 -9 16 C-11.3125 14.1875 -11.3125 14.1875 -13 12 C-13.86625 11.2884375 -13.86625 11.2884375 -14.75 10.5625 C-16 9 -16 9 -16.5 6.5625 C-16 4 -16 4 -14.1875 1.6875 C-9.49491462 -0.79680991 -5.20220971 -0.76951022 0 0 Z " fill="#E5CC2D" transform="translate(81,34)"/>
<path d="M0 0 C2.0625 1.875 2.0625 1.875 3.125 4.75 C3.0625 7.875 3.0625 7.875 1.54296875 10.55078125 C-1.2774622 13.19354726 -2.8136838 13.40686599 -6.62109375 13.31445312 C-7.30300781 13.27255859 -7.98492187 13.23066406 -8.6875 13.1875 C-9.38488281 13.16494141 -10.08226562 13.14238281 -10.80078125 13.11914062 C-12.51394935 13.06047048 -14.22600623 12.97079256 -15.9375 12.875 C-17.27573529 5.41176471 -17.27573529 5.41176471 -15.9375 1.875 C-11.20967092 -2.27975889 -5.63025187 -2.15626668 0 0 Z " fill="#E8D83B" transform="translate(50.9375,35.125)"/>
<path d="M0 0 C1.98 0 3.96 0 6 0 C6.79560764 2.91499943 7.25322499 5.74561419 7.5625 8.75 C7.64628906 9.54921875 7.73007812 10.3484375 7.81640625 11.171875 C7.87699219 11.77515625 7.93757813 12.3784375 8 13 C8.66 13 9.32 13 10 13 C10.66 14.98 11.32 16.96 12 19 C12.66 19 13.32 19 14 19 C14 19.66 14 20.32 14 21 C14.66 21 15.32 21 16 21 C16 21.99 16 22.98 16 24 C21.94 24.99 21.94 24.99 28 26 C28 26.33 28 26.66 28 27 C22.50297817 27.21988087 18.20933217 26.96796993 13 25 C12.0409375 24.90976563 11.081875 24.81953125 10.09375 24.7265625 C6.19000752 23.80977449 5.10724745 22.45582242 2.6875 19.3125 C2.01074219 18.46300781 1.33398438 17.61351563 0.63671875 16.73828125 C-1.57199642 13.04303225 -2.28179683 9.93694834 -1.66015625 5.6640625 C-1.10677083 3.77604167 -0.55338542 1.88802083 0 0 Z " fill="#E6BE20" transform="translate(33,58)"/>
<path d="M0 0 C2 2 2 2 2.125 4.625 C2.08375 5.40875 2.0425 6.1925 2 7 C4.43922361 6.91299202 6.87478414 6.80613998 9.3125 6.6875 C10.34793945 6.65366211 10.34793945 6.65366211 11.40429688 6.61914062 C15.57151707 6.39769414 17.18108136 5.93227998 20 3 C23.25 2.34765625 23.25 2.34765625 27 2.0625 C28.2375 1.95035156 29.475 1.83820312 30.75 1.72265625 C34 2 34 2 35.9375 3.87109375 C37 6 37 6 37 8 C44.56407533 8.20589721 44.56407533 8.20589721 52 7 C52.33 4.69 52.66 2.38 53 0 C53.33 0 53.66 0 54 0 C54.4206933 4.29107165 54.45543836 6.35134537 51.9375 9.9375 C48.35134537 12.45543836 46.29107165 12.4206933 42 12 C41.67 12.66 41.34 13.32 41 14 C41 13.34 41 12.68 41 12 C40.484375 11.773125 39.96875 11.54625 39.4375 11.3125 C37.28731249 10.15470673 35.60270772 8.92998169 33.6875 7.4375 C30.11493851 4.80834219 27.38994146 4.26877193 23 4 C23 4.66 23 5.32 23 6 C19.41811465 9.37250583 15.44857749 12.59702095 10.5078125 13.41015625 C6.46587271 13.13116714 4.25466154 12.17316985 0.875 9.875 C-1 7 -1 7 -0.8125 3.1875 C-0.544375 2.135625 -0.27625 1.08375 0 0 Z " fill="#D4A814" transform="translate(33,41)"/>
<path d="M0 0 C15.46905536 -0.77024342 28.95604971 1.93908779 40.875 12.5625 C41.57625 13.366875 42.2775 14.17125 43 15 C43.763125 15.86625 44.52625 16.7325 45.3125 17.625 C47 20 47 20 47 23 C47.66 23 48.32 23 49 23 C51.69089986 29.66595352 52.46735511 35.52997905 52.375 42.6875 C52.38660156 43.59822266 52.39820313 44.50894531 52.41015625 45.44726562 C52.38712164 50.7337084 51.88653231 54.3952937 49 59 C48.67 58.01 48.34 57.02 48 56 C48.30550781 55.41992188 48.61101562 54.83984375 48.92578125 54.2421875 C50.41384758 51.13618723 50.22803684 48.55220571 50.1875 45.125 C50.17783203 43.33449219 50.17783203 43.33449219 50.16796875 41.5078125 C50.01230122 38.25689515 49.61034956 35.19334892 49 32 C48.34 32 47.68 32 47 32 C46.78085938 31.3709375 46.56171875 30.741875 46.3359375 30.09375 C41.76520134 17.7564784 34.72393943 10.77505418 23 5 C15.59514605 1.63667381 8.04522752 1.33187994 0 1 C0 0.67 0 0.34 0 0 Z " fill="#4F5636" transform="translate(54,10)"/>
<path d="M0 0 C0.69931641 -0.01224609 1.39863281 -0.02449219 2.11914062 -0.03710938 C6.53311655 -0.04949659 10.08881584 0.55960817 14.1875 2.1875 C14.1875 2.8475 14.1875 3.5075 14.1875 4.1875 C13.56705811 4.17702637 12.94661621 4.16655273 12.30737305 4.15576172 C9.49662323 4.11419114 6.6859381 4.08817067 3.875 4.0625 C2.41030273 4.03736328 2.41030273 4.03736328 0.91601562 4.01171875 C-0.49067383 4.00205078 -0.49067383 4.00205078 -1.92578125 3.9921875 C-3.22189331 3.97647705 -3.22189331 3.97647705 -4.54418945 3.96044922 C-7.09430721 4.03659832 -7.09430721 4.03659832 -9.8125 6.1875 C-11.1325 6.1875 -12.4525 6.1875 -13.8125 6.1875 C-13.8125 6.8475 -13.8125 7.5075 -13.8125 8.1875 C-14.555 8.620625 -15.2975 9.05375 -16.0625 9.5 C-20.5800597 12.27213891 -23.43636928 16.05828551 -24.8125 21.1875 C-24.74404626 24.35081465 -24.74404626 24.35081465 -23.8125 27.1875 C-20.91157498 29.12145001 -19.91575263 29.48881941 -16.625 29.8125 C-15.366875 29.93625 -14.10875 30.06 -12.8125 30.1875 C-13.1425 31.1775 -13.4725 32.1675 -13.8125 33.1875 C-18.31246683 33.62867322 -20.15861117 33.71617608 -23.75 30.8125 C-25.8125 28.1875 -25.8125 28.1875 -25.8125 26.1875 C-26.4725 26.1875 -27.1325 26.1875 -27.8125 26.1875 C-27.52137831 19.76826669 -26.36034971 15.56649794 -22.8125 10.1875 C-22.1525 10.1875 -21.4925 10.1875 -20.8125 10.1875 C-20.8125 9.5275 -20.8125 8.8675 -20.8125 8.1875 C-18.73046875 6.49609375 -18.73046875 6.49609375 -16 4.625 C-15.10667969 4.00496094 -14.21335937 3.38492187 -13.29296875 2.74609375 C-8.92084648 -0.00111378 -5.00514865 0.00453776 0 0 Z " fill="#BF8004" transform="translate(57.8125,22.8125)"/>
<path d="M0 0 C0.99 0.33 1.98 0.66 3 1 C4.10477751 6.567786 3.74945228 10.91690919 2.5625 16.4375 C2.41490234 17.16904297 2.26730469 17.90058594 2.11523438 18.65429688 C1.75376742 20.43831121 1.3783325 22.21948602 1 24 C-0.32 24 -1.64 24 -3 24 C-5.40658095 20.39012858 -5.65939726 17.32576709 -6 13.125 C-6.08894531 12.41730469 -6.17789062 11.70960937 -6.26953125 10.98046875 C-6.50319803 8.06235102 -6.55839233 5.74967705 -4.765625 3.34277344 C-3.1875 1.9296875 -3.1875 1.9296875 0 0 Z " fill="#DEB120" transform="translate(26,34)"/>
<path d="M0 0 C0.66 0.33 1.32 0.66 2 1 C3.80814871 7.87542965 4.36261244 14.9228054 4 22 C3.99033203 23.21816406 3.99033203 23.21816406 3.98046875 24.4609375 C3.69766458 31.26918614 1.50525704 35.89116786 -3 41 C-5.875 43.0625 -5.875 43.0625 -8 44 C-7.26003378 40.78341215 -6.24636721 37.72831855 -5.125 34.625 C-4.79757813 33.70976563 -4.47015625 32.79453125 -4.1328125 31.8515625 C-3 29 -3 29 -1.37890625 26.390625 C0.67760055 21.33383207 0.31715143 16.52381852 0.1875 11.125 C0.17396484 10.05507813 0.16042969 8.98515625 0.14648438 7.8828125 C0.11128624 5.25468489 0.06204693 2.62760806 0 0 Z " fill="#455275" transform="translate(105,40)"/>
<path d="M0 0 C0.99 0 1.98 0 3 0 C2.67 1.32 2.34 2.64 2 4 C1.01 4 0.02 4 -1 4 C-1 4.66 -1 5.32 -1 6 C-2.39077301 6.82113177 -3.78788893 7.63152495 -5.1875 8.4375 C-5.96480469 8.88996094 -6.74210937 9.34242187 -7.54296875 9.80859375 C-13.22276605 12.5627085 -19.26473061 12.18323409 -25.4375 12.1875 C-26.36626953 12.19974609 -27.29503906 12.21199219 -28.25195312 12.22460938 C-33.24265852 12.23526569 -37.3231775 11.97535241 -42 10 C-42 9.34 -42 8.68 -42 8 C-42.928125 7.87625 -43.85625 7.7525 -44.8125 7.625 C-48 7 -48 7 -51 5 C-51 4.01 -51 3.02 -51 2 C-46.545 2.99 -46.545 2.99 -42 4 C-42 4.66 -42 5.32 -42 6 C-40.700625 6.433125 -40.700625 6.433125 -39.375 6.875 C-37.29299 7.56900333 -35.22516395 8.30993442 -33.1875 9.125 C-22.83922143 11.96570392 -14.22927018 8.21185508 -4.9453125 3.76953125 C-3 3 -3 3 0 3 C0 2.01 0 1.02 0 0 Z " fill="#D28413" transform="translate(85,79)"/>
<path d="M0 0 C2.68711947 2.54692193 4.60853574 5.29032712 6.62109375 8.37890625 C9.18017913 11.38746271 11.37068733 11.94224425 15.27734375 12.30078125 C17.08912109 12.30658203 17.08912109 12.30658203 18.9375 12.3125 C20.14277344 12.32925781 21.34804688 12.34601563 22.58984375 12.36328125 C26.28659156 11.96946963 28.10248365 11.29429675 31 9 C32.34546133 7.03675904 32.34546133 7.03675904 33.1875 4.875 C34.81563594 1.09218203 34.81563594 1.09218203 37 0 C35.77206489 9.29722299 35.77206489 9.29722299 33.4765625 11.38671875 C32.86554688 11.81597656 32.25453125 12.24523437 31.625 12.6875 C31.01914063 13.12449219 30.41328125 13.56148437 29.7890625 14.01171875 C28 15 28 15 25 15 C25 15.66 25 16.32 25 17 C17.64825194 17.55253221 12.488417 16.51064108 6 13 C6 12.34 6 11.68 6 11 C5.34 11 4.68 11 4 11 C3.32880451 9.5437455 2.66318193 8.08492133 2 6.625 C1.62875 5.81289062 1.2575 5.00078125 0.875 4.1640625 C0 2 0 2 0 0 Z " fill="#9A4305" transform="translate(41,66)"/>
<path d="M0 0 C1.9375 0.5625 1.9375 0.5625 4 2 C5.42186371 7.17964638 4.95003424 11.02741268 3 16 C2.01 16.66 1.02 17.32 0 18 C0 17.01 0 16.02 0 15 C-0.66 15 -1.32 15 -2 15 C-2 18.3 -2 21.6 -2 25 C-2.33 24.01 -2.66 23.02 -3 22 C-3.54269531 22.28875 -4.08539063 22.5775 -4.64453125 22.875 C-5.71767578 23.431875 -5.71767578 23.431875 -6.8125 24 C-7.52019531 24.37125 -8.22789063 24.7425 -8.95703125 25.125 C-11 26 -11 26 -14 26 C-14 25.34 -14 24.68 -14 24 C-10.66666667 22.33333333 -7.33333333 20.66666667 -4 19 C-3.59347032 13.57960425 -4.96006486 9.92984325 -7 5 C-6.34 5 -5.68 5 -5 5 C-5 5.66 -5 6.32 -5 7 C-4.01 7 -3.02 7 -2 7 C-1.34 4.69 -0.68 2.38 0 0 Z " fill="#E0B310" transform="translate(94,32)"/>
<path d="M0 0 C3.38361519 0.61728115 5.52002561 1.86979718 8.25 3.9375 C8.95640625 4.46214844 9.6628125 4.98679687 10.390625 5.52734375 C11.18726562 6.25630859 11.18726562 6.25630859 12 7 C12 7.66 12 8.32 12 9 C12.66 9 13.32 9 14 9 C17.07708804 14.93438408 18.48736475 19.29873464 18 26 C17.01 26 16.02 26 15 26 C14.071875 26.495 13.14375 26.99 12.1875 27.5 C8.79486742 29.09653298 6.69398275 29.26385591 3 29 C2.67 28.01 2.34 27.02 2 26 C3.60875 25.87625 3.60875 25.87625 5.25 25.75 C9.37676065 24.92464787 10.65081114 24.43342988 13 21 C13.80765878 17.35278304 13.80765878 17.35278304 14 14 C13.34 14 12.68 14 12 14 C11.56042969 13.26265625 11.12085937 12.5253125 10.66796875 11.765625 C8.865637 8.77721544 6.96928191 6.99179343 4.3125 4.75 C2.85994386 3.51752813 1.41787201 2.27222059 0 1 C0 0.67 0 0.34 0 0 Z " fill="#BD7F09" transform="translate(73,27)"/>
<path d="M0 0 C3.69583841 3.69583841 3.16081056 7.96103464 3.1875 13 C3.20167969 14.216875 3.21585938 15.43375 3.23046875 16.6875 C3.00966736 19.86105225 2.54238329 21.31532532 1 24 C0.69638027 25.30530533 0.42516489 26.61859047 0.1875 27.9375 C-0.79734606 32.11918764 -2.57238463 34.324788 -6 37 C-6.99 37 -7.98 37 -9 37 C-9 37.66 -9 38.32 -9 39 C-9.66 38.67 -10.32 38.34 -11 38 C-9.71937515 36.2925002 -8.38232443 34.62626404 -7 33 C-6.34 33 -5.68 33 -5 33 C-4.87882812 32.27554688 -4.75765625 31.55109375 -4.6328125 30.8046875 C-4.46523437 29.83789062 -4.29765625 28.87109375 -4.125 27.875 C-3.96257812 26.92367187 -3.80015625 25.97234375 -3.6328125 24.9921875 C-3 22 -3 22 -1.96875 19.15625 C-0.77795479 15.27656238 -0.55007979 11.65913024 -0.375 7.625 C-0.33632812 6.88894531 -0.29765625 6.15289062 -0.2578125 5.39453125 C-0.16442002 3.59672594 -0.0811629 1.79839892 0 0 Z " fill="#882D0A" transform="translate(102,42)"/>
<path d="M0 0 C0.33 0 0.66 0 1 0 C1.1959375 0.96679688 1.391875 1.93359375 1.59375 2.9296875 C3.40484331 11.06129769 5.52521237 16.75477713 11.29296875 23.046875 C13 25 13 25 14 28 C14.99 28.66 15.98 29.32 17 30 C18.06246527 31.96752828 19.07137808 33.96587579 20 36 C14.73487298 34.74639833 11.14505244 32.38299861 8 28 C8 27.01 8 26.02 8 25 C7.34 25 6.68 25 6 25 C5.34 23.02 4.68 21.04 4 19 C3.34 19 2.68 19 2 19 C0.67611771 12.56971459 -0.24794402 6.5705166 0 0 Z " fill="#45222E" transform="translate(16,55)"/>
<path d="M0 0 C2.475 0.495 2.475 0.495 5 1 C5.69426526 16.19669524 5.69426526 16.19669524 2 22 C-0.109375 22.73828125 -0.109375 22.73828125 -2 23 C-1.67 22.34 -1.34 21.68 -1 21 C-0.34 21 0.32 21 1 21 C1.33 18.03 1.66 15.06 2 12 C0.68 12.33 -0.64 12.66 -2 13 C-2.309375 13.61875 -2.61875 14.2375 -2.9375 14.875 C-4.43546776 17.87093553 -5.96498757 18.61445085 -9 20 C-11.67907714 20.51692769 -14.27314602 20.76891068 -17 21 C-17.33 20.34 -17.66 19.68 -18 19 C-16.88625 18.87625 -15.7725 18.7525 -14.625 18.625 C-10.96896323 18.3534187 -10.96896323 18.3534187 -9 16 C-8.01 15.67 -7.02 15.34 -6 15 C-4.96708324 13.01679982 -3.9662501 11.01652194 -3 9 C-2.34 8.67 -1.68 8.34 -1 8 C-0.53476937 6.10466658 -0.53476937 6.10466658 -0.375 3.9375 C-0.25125 2.638125 -0.1275 1.33875 0 0 Z " fill="#DCA31D" transform="translate(75,55)"/>
<path d="M0 0 C6.93986264 2.11095038 12.90882833 5.64856018 18.4296875 10.34765625 C18.9246875 11.33765625 18.9246875 11.33765625 19.4296875 12.34765625 C18.4396875 12.34765625 17.4496875 12.34765625 16.4296875 12.34765625 C14.4296875 10.34765625 14.4296875 10.34765625 13.4296875 8.34765625 C8.24921025 6.44462379 3.92629207 6.15479293 -1.5703125 6.34765625 C-1.5703125 5.68765625 -1.5703125 5.02765625 -1.5703125 4.34765625 C-2.8903125 4.01765625 -4.2103125 3.68765625 -5.5703125 3.34765625 C-5.2403125 3.01765625 -4.9103125 2.68765625 -4.5703125 2.34765625 C-11.5003125 2.01765625 -18.4303125 1.68765625 -25.5703125 1.34765625 C-18.93985813 -3.07264666 -7.59124981 -1.38702267 0 0 Z " fill="#E2D72B" transform="translate(71.5703125,11.65234375)"/>
<path d="M0 0 C0.33 0 0.66 0 1 0 C1.20086443 3.71599191 1.1519437 4.77208445 -1 8 C-1.18426463 10.6196161 -1.18426463 10.6196161 -0.9765625 13.54296875 C-0.925 14.61611328 -0.8734375 15.68925781 -0.8203125 16.79492188 C-0.75585938 17.91447266 -0.69140625 19.03402344 -0.625 20.1875 C-0.56828125 21.31865234 -0.5115625 22.44980469 -0.453125 23.61523438 C-0.31157786 26.41079047 -0.16015835 29.20545841 0 32 C0.66 32 1.32 32 2 32 C2.66 34.97 3.32 37.94 4 41 C4.66 41 5.32 41 6 41 C7.625 42.3125 7.625 42.3125 9 44 C9 44.99 9 45.98 9 47 C9.66 47 10.32 47 11 47 C11.33 47.99 11.66 48.98 12 50 C10.68 49.67 9.36 49.34 8 49 C7.67 47.68 7.34 46.36 7 45 C6.01 45 5.02 45 4 45 C3.15238178 43.29870914 2.3225132 41.58856916 1.5 39.875 C1.0359375 38.92367187 0.571875 37.97234375 0.09375 36.9921875 C-1.07748116 33.78803369 -1.20076124 31.38282687 -1 28 C-1.99 28 -2.98 28 -4 28 C-4.50903378 8.37391987 -4.50903378 8.37391987 0 0 Z " fill="#D08121" transform="translate(22,31)"/>
<path d="M0 0 C0.556875 0.226875 1.11375 0.45375 1.6875 0.6875 C-0.5625 3.1875 -0.5625 3.1875 -3.3125 5.6875 C-4.6325 5.6875 -5.9525 5.6875 -7.3125 5.6875 C-7.6425 7.3375 -7.9725 8.9875 -8.3125 10.6875 C-9.488125 10.873125 -9.488125 10.873125 -10.6875 11.0625 C-13.45307822 11.47867993 -13.45307822 11.47867993 -15.3125 13.6875 C-16.11682248 15.67093396 -16.76831465 17.6809905 -17.43359375 19.71484375 C-18.40284702 21.89027887 -19.54453963 23.11652686 -21.3125 24.6875 C-21.9725 24.3575 -22.6325 24.0275 -23.3125 23.6875 C-22.85988642 22.24818883 -22.40017021 20.81111001 -21.9375 19.375 C-21.68226562 18.57449219 -21.42703125 17.77398438 -21.1640625 16.94921875 C-20.3125 14.6875 -20.3125 14.6875 -18.3125 11.6875 C-17.6525 11.6875 -16.9925 11.6875 -16.3125 11.6875 C-16.126875 11.130625 -15.94125 10.57375 -15.75 10 C-13.63076033 6.59078836 -10.63375533 4.85134817 -7.3125 2.6875 C-6.425625 2.06875 -5.53875 1.45 -4.625 0.8125 C-2.3125 -0.3125 -2.3125 -0.3125 0 0 Z " fill="#E0BE39" transform="translate(44.3125,13.3125)"/>
<path d="M0 0 C3.3 0 6.6 0 10 0 C10 0.66 10 1.32 10 2 C10.66 2.33 11.32 2.66 12 3 C11.67 3.66 11.34 4.32 11 5 C11.66 5 12.32 5 13 5 C13 6.65 13 8.3 13 10 C12.01 10 11.02 10 10 10 C9.67 10.66 9.34 11.32 9 12 C9 11.01 9 10.02 9 9 C7.906875 8.87625 6.81375 8.7525 5.6875 8.625 C2 8 2 8 -1 6 C-0.67 4.02 -0.34 2.04 0 0 Z " fill="#E8D83A" transform="translate(68,36)"/>
<path d="M0 0 C0.95390625 -0.00644531 1.9078125 -0.01289063 2.890625 -0.01953125 C8.130087 0.06164351 8.130087 0.06164351 10.375 0.625 C12.16943359 2.66259766 12.16943359 2.66259766 13.375 4.625 C10.65529282 5.32435328 8.76281005 5.71160454 5.99609375 5.09375 C3.14202114 4.58333463 1.41692566 4.86451858 -1.375 5.5625 C-6.24734812 6.65255987 -10.6420037 6.78574182 -15.625 6.625 C-11.42006689 -0.15657298 -7.66225513 -0.26097599 0 0 Z " fill="#E6D422" transform="translate(56.625,12.375)"/>
<path d="M0 0 C0.33 0 0.66 0 1 0 C0.67 6.93 0.34 13.86 0 21 C0.99 21 1.98 21 3 21 C3.10957031 21.59167969 3.21914063 22.18335937 3.33203125 22.79296875 C4.27179871 27.47652529 5.37809665 30.94796756 8 35 C8 35.99 8 36.98 8 38 C8.99 38 9.98 38 11 38 C11.33 39.32 11.66 40.64 12 42 C13.32 42.33 14.64 42.66 16 43 C15.67 43.99 15.34 44.98 15 46 C6.68705586 39.21350218 0.75199021 32.91200205 -1 22 C-1.48738602 14.73462916 -1.73011169 7.10182943 0 0 Z " fill="#A55E2E" transform="translate(18,38)"/>
<path d="M0 0 C0.99 0.33 1.98 0.66 3 1 C3.94921875 3.06640625 3.94921875 3.06640625 4.6875 5.5625 C4.93886719 6.38878906 5.19023438 7.21507813 5.44921875 8.06640625 C5.63097656 8.70449219 5.81273437 9.34257813 6 10 C7.32 10 8.64 10 10 10 C10 10.66 10 11.32 10 12 C15.84562569 13.55883352 22.21873569 13.73788645 28.0625 12.1875 C30.3295913 11.08389267 30.3295913 11.08389267 31 8 C32.485 8.495 32.485 8.495 34 9 C31.58030865 12.28386684 29.84291356 14.55726795 26 16 C19.99056103 16.62266476 14.13516657 16.87694341 8.5 14.5625 C4.58205364 10.54660498 0 5.82333279 0 0 Z " fill="#C67012" transform="translate(41,63)"/>
<path d="M0 0 C0.66 1.65 1.32 3.3 2 5 C-6.04786696 9.34474822 -14.13719717 9.24685819 -23 8 C-22.67 7.34 -22.34 6.68 -22 6 C-21.01 6 -20.02 6 -19 6 C-20.98 5.34 -22.96 4.68 -25 4 C-25 3.34 -25 2.68 -25 2 C-24.05125 2.309375 -23.1025 2.61875 -22.125 2.9375 C-17.49061575 4.27928271 -12.79447959 4.63342007 -8 5 C-8 4.34 -8 3.68 -8 3 C-2.25 0 -2.25 0 0 0 Z " fill="#E5B429" transform="translate(74,78)"/>
<path d="M0 0 C0.66 0 1.32 0 2 0 C3.40234375 2.08203125 3.40234375 2.08203125 4.9375 4.8125 C6.73243622 7.99380639 8.42463583 10.43931027 11 13 C12.46833703 17.40501109 12.22493708 21.69778938 12.25 26.3125 C12.270625 27.25029297 12.29125 28.18808594 12.3125 29.15429688 C12.34296951 34.55882605 11.99220795 38.29908382 9 43 C8.505 41.515 8.505 41.515 8 40 C8.45826172 39.12988281 8.45826172 39.12988281 8.92578125 38.2421875 C10.41384758 35.13618723 10.22803684 32.55220571 10.1875 29.125 C10.18105469 27.93132813 10.17460938 26.73765625 10.16796875 25.5078125 C10.01230122 22.25689515 9.61034956 19.19334892 9 16 C8.34 16 7.68 16 7 16 C6.74605469 15.34773438 6.49210937 14.69546875 6.23046875 14.0234375 C4.34261472 9.22956098 2.39996262 4.55992898 0 0 Z " fill="#714B2C" transform="translate(94,26)"/>
<path d="M0 0 C0 0.66 0 1.32 0 2 C0.99 2.33 1.98 2.66 3 3 C-0.35316742 4.11772247 -2.59612776 3.85096806 -6 3 C-6.61875 2.896875 -7.2375 2.79375 -7.875 2.6875 C-11.19859708 1.61221859 -14.00338363 -0.21355563 -17 -2 C-17 -2.66 -17 -3.32 -17 -4 C-10.10643844 -5.94818044 -6.01053097 -3.49505724 0 0 Z " fill="#E3CD1E" transform="translate(88,22)"/>
<path d="M0 0 C-0.98693438 2.0095949 -1.99232121 3.98659604 -3.10546875 5.9296875 C-5.00107408 9.33767109 -6.01107762 11.40180868 -5.9375 15.375 C-5.18442813 18.30822236 -5.18442813 18.30822236 -2 20 C0.0492094 20.45139459 0.0492094 20.45139459 2.1875 20.625 C3.445625 20.74875 4.70375 20.8725 6 21 C5.67 21.99 5.34 22.98 5 24 C0.50003317 24.44117322 -1.34611117 24.52867608 -4.9375 21.625 C-7 19 -7 19 -7 17 C-7.66 17 -8.32 17 -9 17 C-8.70998619 10.60519551 -7.64829326 6.30660838 -4 1 C-2 0 -2 0 0 0 Z " fill="#C18606" transform="translate(39,32)"/>
<path d="M0 0 C0.66 0.66 1.32 1.32 2 2 C1.96712417 4.72869407 1.43602229 7.2966618 1 10 C1.66386719 9.855625 2.32773437 9.71125 3.01171875 9.5625 C3.89472656 9.376875 4.77773438 9.19125 5.6875 9 C6.55761719 8.814375 7.42773438 8.62875 8.32421875 8.4375 C10.93712964 8.01027953 13.35813038 7.92383799 16 8 C15.34 9.32 14.68 10.64 14 12 C9.05 12 4.1 12 -1 12 C-2.15789474 5.05263158 -2.15789474 5.05263158 -1 1 C-0.67 0.67 -0.34 0.34 0 0 Z " fill="#E2C82E" transform="translate(36,36)"/>
<path d="M0 0 C1.01320313 0.52400391 1.01320313 0.52400391 2.046875 1.05859375 C2.93890625 1.51363281 3.8309375 1.96867187 4.75 2.4375 C5.63171875 2.88996094 6.5134375 3.34242187 7.421875 3.80859375 C9.64198566 4.83455398 11.61444619 5.51508603 14 6 C14 6.66 14 7.32 14 8 C15.051875 7.9071875 15.051875 7.9071875 16.125 7.8125 C19 8 19 8 21.65625 9.5 C25.7846144 11.35197655 28.92692903 11.3443488 33.375 11.1875 C34.11105469 11.17396484 34.84710938 11.16042969 35.60546875 11.14648438 C37.40396743 11.11144869 39.20208422 11.05765288 41 11 C40.67 11.66 40.34 12.32 40 13 C25.69227704 13.4528822 14.8484344 12.86164156 3 4 C2.01 3.34 1.02 2.68 0 2 C0 1.34 0 0.68 0 0 Z " fill="#AB5514" transform="translate(29,81)"/>
<path d="M0 0 C2 1 2 1 3.10546875 3.578125 C4.09283013 7.35510563 4.34358913 10.87406653 4.3125 14.75 C4.30903564 15.44939697 4.30557129 16.14879395 4.30200195 16.86938477 C4.1865644 22.40464716 3.71990898 28.06386888 1 33 C-0.485 33.495 -0.485 33.495 -2 34 C-1.125 27.125 -1.125 27.125 0 26 C1.73942292 17.68942383 1.96438937 8.26290768 0 0 Z " fill="#C88212" transform="translate(98,35)"/>
<path d="M0 0 C2.97 0.99 5.94 1.98 9 3 C9.33 4.98 9.66 6.96 10 9 C10.99 9 11.98 9 13 9 C13.33 10.32 13.66 11.64 14 13 C14.66 13 15.32 13 16 13 C16.33 13.99 16.66 14.98 17 16 C16.34 16 15.68 16 15 16 C15 15.34 15 14.68 15 14 C14.484375 13.773125 13.96875 13.54625 13.4375 13.3125 C10.10452995 11.51782382 6.85296329 9.50034985 4 7 C4 6.34 4 5.68 4 5 C3.05125 5.04125 2.1025 5.0825 1.125 5.125 C-2 5 -2 5 -4 3 C-2.68 3 -1.36 3 0 3 C0 2.01 0 1.02 0 0 Z " fill="#DFBB13" transform="translate(70,20)"/>
<path d="M0 0 C2.35050868 3.67266981 2.36348132 6.7109204 2 11 C1.30322402 13.748999 0.46105817 15.48093419 -1 18 C-3.6875 18.9375 -3.6875 18.9375 -6 19 C-6.33 17.68 -6.66 16.36 -7 15 C-6.01 14.67 -5.02 14.34 -4 14 C-3.26444859 12.06177879 -3.26444859 12.06177879 -2.9375 9.75 C-2.2814701 6.2934391 -1.45603981 3.22408815 0 0 Z " fill="#E3C425" transform="translate(81,63)"/>
<path d="M0 0 C2.8326134 1.4163067 3.01707833 3.14497293 4.125 6.0625 C4.47820313 6.98160156 4.83140625 7.90070313 5.1953125 8.84765625 C5.46085937 9.55792969 5.72640625 10.26820312 6 11 C6.928125 10.7215625 6.928125 10.7215625 7.875 10.4375 C10 10 10 10 12 11 C12 11.99 12 12.98 12 14 C17.94 14.99 17.94 14.99 24 16 C24 16.33 24 16.66 24 17 C18.55152932 17.21793883 14.12895301 17.09820805 9 15 C8.071875 14.731875 7.14375 14.46375 6.1875 14.1875 C4 13 4 13 3.1875 10.375 C3.125625 9.59125 3.06375 8.8075 3 8 C2.01 7.67 1.02 7.34 0 7 C0 4.69 0 2.38 0 0 Z " fill="#E6BC2F" transform="translate(37,68)"/>
<path d="M0 0 C3.12290635 0.48578543 5.99580359 0.9986012 9 2 C11.88528201 2.09790378 14.74032282 2.14132726 17.625 2.125 C18.43372559 2.12306641 19.24245117 2.12113281 20.07568359 2.11914062 C25.45022247 2.08017116 30.67708153 1.78858051 36 1 C33.55646255 3.95796639 31.77975199 4.56049395 28 5 C18.13338501 5.69243789 8.86039424 5.98675455 0 1 C0 0.67 0 0.34 0 0 Z " fill="#41191E" transform="translate(40,93)"/>
<path d="M0 0 C5.75 1.75 5.75 1.75 8 4 C10.31808364 5.03485877 12.65175298 6.0355414 15 7 C15.66 7.33 16.32 7.66 17 8 C19.87910588 8.23274209 22.74146495 8.41972757 25.625 8.5625 C26.42679688 8.60568359 27.22859375 8.64886719 28.0546875 8.69335938 C30.0362511 8.79951457 32.01810271 8.90026855 34 9 C34 9.33 34 9.66 34 10 C12.62240185 10.86374134 12.62240185 10.86374134 3 6 C0 2.72727273 0 2.72727273 0 0 Z " fill="#641E08" transform="translate(33,86)"/>
<path d="M0 0 C3.0103245 3.0103245 2.97819673 5.22903621 3.09765625 9.453125 C3.08605469 10.70609375 3.07445313 11.9590625 3.0625 13.25 C3.05347656 14.51328125 3.04445313 15.7765625 3.03515625 17.078125 C3.02355469 18.04234375 3.01195313 19.0065625 3 20 C1.68 20 0.36 20 -1 20 C-0.67 13.4 -0.34 6.8 0 0 Z " fill="#8C4611" transform="translate(102,42)"/>
<path d="M0 0 C1.22396484 -0.00386719 1.22396484 -0.00386719 2.47265625 -0.0078125 C3.74689453 0.00378906 3.74689453 0.00378906 5.046875 0.015625 C5.88089844 0.00789062 6.71492188 0.00015625 7.57421875 -0.0078125 C12.69732166 0.0082726 16.94479875 0.61329633 21.796875 2.265625 C21.796875 2.595625 21.796875 2.925625 21.796875 3.265625 C12.226875 2.935625 2.656875 2.605625 -7.203125 2.265625 C-4.13200023 0.21820849 -3.4696375 0.0106384 0 0 Z " fill="#C6C74D" transform="translate(53.203125,10.734375)"/>
<path d="M0 0 C0.66 0 1.32 0 2 0 C5.65111665 6.54158399 5.29887594 12.63879629 5 20 C4.67 19.01 4.34 18.02 4 17 C3.45730469 17.28875 2.91460937 17.5775 2.35546875 17.875 C1.28232422 18.431875 1.28232422 18.431875 0.1875 19 C-0.52019531 19.37125 -1.22789063 19.7425 -1.95703125 20.125 C-4 21 -4 21 -7 21 C-7 20.34 -7 19.68 -7 19 C-3.66666667 17.33333333 -0.33333333 15.66666667 3 14 C3.40652968 8.57960425 2.03993514 4.92984325 0 0 Z " fill="#DEA719" transform="translate(87,37)"/>
<path d="M0 0 C0.99 0.33 1.98 0.66 3 1 C2.67 1.99 2.34 2.98 2 4 C1.01 4 0.02 4 -1 4 C-1.0928125 4.928125 -1.0928125 4.928125 -1.1875 5.875 C-2 8 -2 8 -3.9375 9.25 C-8.25270969 10.30678605 -12.58114101 10.53182728 -17 10 C-17.66 9.34 -18.32 8.68 -19 8 C-17.783125 8.04125 -16.56625 8.0825 -15.3125 8.125 C-11.74481659 8.13129221 -9.25464089 7.53691375 -6 6 C-4.9171875 5.8453125 -4.9171875 5.8453125 -3.8125 5.6875 C-1.69734901 5.12185109 -1.69734901 5.12185109 -0.75 2.4375 C-0.5025 1.633125 -0.255 0.82875 0 0 Z " fill="#D38115" transform="translate(73,67)"/>
<path d="M0 0 C0.99 0 1.98 0 3 0 C2.46608326 4.53829228 0.80333268 7.4179638 -2 11 C-4.75 12.875 -4.75 12.875 -7 14 C-6.49396008 11.83125748 -6.00016187 10.00032373 -5 8 C-4.34 8 -3.68 8 -3 8 C-2.690625 7.05125 -2.38125 6.1025 -2.0625 5.125 C-1 2 -1 2 0 0 Z " fill="#45517A" transform="translate(104,70)"/>
<path d="M0 0 C0.33 0 0.66 0 1 0 C1.20086443 3.71599191 1.1519437 4.77208445 -1 8 C-1.3650791 10.22131423 -1.3650791 10.22131423 -1.4140625 12.66796875 C-1.45273437 13.56064453 -1.49140625 14.45332031 -1.53125 15.37304688 C-1.5621875 16.30181641 -1.593125 17.23058594 -1.625 18.1875 C-1.66367187 19.12787109 -1.70234375 20.06824219 -1.7421875 21.03710938 C-1.83643187 23.3578771 -1.92204025 25.67863748 -2 28 C-2.66 28 -3.32 28 -4 28 C-4.50903378 8.37391987 -4.50903378 8.37391987 0 0 Z " fill="#BE9142" transform="translate(22,31)"/>
<path d="M0 0 C0.33 0 0.66 0 1 0 C1.02700675 2.91672884 1.04684237 5.83320677 1.0625 8.75 C1.07087891 9.575 1.07925781 10.4 1.08789062 11.25 C1.09111328 12.04921875 1.09433594 12.8484375 1.09765625 13.671875 C1.10289307 14.4050293 1.10812988 15.13818359 1.11352539 15.89355469 C0.9975109 18.0461849 0.59073271 19.9314135 0 22 C-0.66 22 -1.32 22 -2 22 C-2.309375 22.94875 -2.61875 23.8975 -2.9375 24.875 C-4 28 -4 28 -5 30 C-5.66 30 -6.32 30 -7 30 C-6.56856647 28.62308448 -6.12948836 27.24856381 -5.6875 25.875 C-5.44386719 25.10929687 -5.20023437 24.34359375 -4.94921875 23.5546875 C-4 21 -4 21 -2.4375 18.1875 C-0.76177507 14.47176211 -0.44841985 11.13269395 -0.3125 7.125 C-0.27833984 6.43664063 -0.24417969 5.74828125 -0.20898438 5.0390625 C-0.12735909 3.35991387 -0.0619843 1.67998832 0 0 Z " fill="#59485E" transform="translate(106,48)"/>
<path d="M0 0 C3.39417765 3.12621626 5.6062718 5.56541027 7 10 C5.35 9.67 3.7 9.34 2 9 C1.67 9.66 1.34 10.32 1 11 C0.34 11 -0.32 11 -1 11 C-1.33 9.35 -1.66 7.7 -2 6 C-1.01 6 -0.02 6 1 6 C0.67 4.02 0.34 2.04 0 0 Z " fill="#DAB827" transform="translate(91,24)"/>
<path d="M0 0 C2.14838367 2.03629408 3.81152676 4.09421931 5.4375 6.5625 C7.37930176 9.36080647 8.83621549 10.64409235 12 12 C12.33 12.99 12.66 13.98 13 15 C8.25 14.125 8.25 14.125 6 13 C6 12.34 6 11.68 6 11 C5.34 11 4.68 11 4 11 C3.32880451 9.5437455 2.66318193 8.08492133 2 6.625 C1.62875 5.81289062 1.2575 5.00078125 0.875 4.1640625 C0 2 0 2 0 0 Z " fill="#883405" transform="translate(41,66)"/>
<path d="M0 0 C0 0.33 0 0.66 0 1 C-2.64 1.33 -5.28 1.66 -8 2 C-8 2.66 -8 3.32 -8 4 C-7.34 4.33 -6.68 4.66 -6 5 C-7.98 5.33 -9.96 5.66 -12 6 C-12 6.66 -12 7.32 -12 8 C-13.65 8.66 -15.3 9.32 -17 10 C-17.66 9.34 -18.32 8.68 -19 8 C-17.3990869 6.84962529 -15.79414775 5.70485184 -14.1875 4.5625 C-13.29417969 3.92441406 -12.40085937 3.28632813 -11.48046875 2.62890625 C-7.55157947 0.0488325 -4.60267882 -0.10228175 0 0 Z " fill="#C38D06" transform="translate(56,23)"/>
<path d="M0 0 C0 0.33 0 0.66 0 1 C-5.33333333 1 -10.66666667 1 -16 1 C-16.99 1.33 -17.98 1.66 -19 2 C-19 1.34 -19 0.68 -19 0 C-12.1788999 -4.15920738 -7.18588929 -2.62898388 0 0 Z " fill="#DCB710" transform="translate(64,22)"/>
<path d="M0 0 C0.99 0 1.98 0 3 0 C3.33 0.66 3.66 1.32 4 2 C4.99 2.66 5.98 3.32 7 4 C6.34 4 5.68 4 5 4 C5 4.66 5 5.32 5 6 C5.639375 6.12375 6.27875 6.2475 6.9375 6.375 C7.618125 6.58125 8.29875 6.7875 9 7 C9.33 7.66 9.66 8.32 10 9 C8.35 9 6.7 9 5 9 C5 8.34 5 7.68 5 7 C3.68 7 2.36 7 1 7 C0.67 4.69 0.34 2.38 0 0 Z " fill="#D78B1D" transform="translate(46,66)"/>
<path d="M0 0 C0.99 0.309375 1.98 0.61875 3 0.9375 C6.97731122 2.08433207 10.88767379 2.56712356 15 3 C15 3.99 15 4.98 15 6 C12.27157939 7.36421031 10.39046682 6.87807211 7.375 6.5625 C6.37210938 6.46066406 5.36921875 6.35882813 4.3359375 6.25390625 C3.56507812 6.17011719 2.79421875 6.08632812 2 6 C2.33 5.34 2.66 4.68 3 4 C3.99 4 4.98 4 6 4 C4.02 3.34 2.04 2.68 0 2 C0 1.34 0 0.68 0 0 Z " fill="#DAA428" transform="translate(49,80)"/>
<path d="M0 0 C0.99 0 1.98 0 3 0 C2.67 1.32 2.34 2.64 2 4 C1.01 4 0.02 4 -1 4 C-1 4.66 -1 5.32 -1 6 C-5.22949995 8.41685712 -8.12335991 9.34833144 -13 9 C-11.66876597 6.33753193 -10.3235622 6.05398348 -7.625 4.875 C-6.83351563 4.52179688 -6.04203125 4.16859375 -5.2265625 3.8046875 C-3 3 -3 3 0 3 C0 2.01 0 1.02 0 0 Z " fill="#D38609" transform="translate(85,79)"/>
<path d="M0 0 C0 0.99 0 1.98 0 3 C-0.99 3.33 -1.98 3.66 -3 4 C-3.69658363 5.65438613 -4.36096883 7.32254318 -5 9 C-7.36900079 12.19815107 -10.25699458 12.91868732 -14 14 C-12.67744883 10.03234648 -10.13223924 8.53573439 -6.8203125 6.3046875 C-4.23903405 4.45458663 -2.175405 2.30724773 0 0 Z " fill="#58394A" transform="translate(98,78)"/>
<path d="M0 0 C0.45375 0.78375 0.9075 1.5675 1.375 2.375 C5.09558679 6.09558679 8.91344923 6.34962042 14 7 C13.67 7.99 13.34 8.98 13 10 C9.875 10.4375 9.875 10.4375 6 10 C3.51968502 7.99853108 1.60835854 5.75129465 0 3 C0 2.01 0 1.02 0 0 Z " fill="#AD6208" transform="translate(31,46)"/>
<path d="M0 0 C2 2 2 2 2.125 4.625 C2.08375 5.40875 2.0425 6.1925 2 7 C4.97 7 7.94 7 11 7 C11 7.99 11 8.98 11 10 C2.42857143 9.14285714 2.42857143 9.14285714 -1 7 C-0.67 4.69 -0.34 2.38 0 0 Z " fill="#DCAB23" transform="translate(33,41)"/>
<path d="M0 0 C3.375 -0.1875 3.375 -0.1875 7 0 C7.66 0.99 8.32 1.98 9 3 C7.948125 2.938125 6.89625 2.87625 5.8125 2.8125 C1.77539551 3.01104612 0.11637422 3.50690063 -3 6 C-4.32793606 8.06700655 -4.32793606 8.06700655 -5 10 C-5.66 8.68 -6.32 7.36 -7 6 C-2.25 2 -2.25 2 0 2 C0 1.34 0 0.68 0 0 Z " fill="#EBD737" transform="translate(56,45)"/>
<path d="M0 0 C0.99 0.33 1.98 0.66 3 1 C2.01 1.33 1.02 1.66 0 2 C0 2.66 0 3.32 0 4 C-7.90611355 6.63537118 -15.76865163 6.17981101 -24 6 C-24 5.67 -24 5.34 -24 5 C-22.60587891 4.92652344 -22.60587891 4.92652344 -21.18359375 4.8515625 C-10.0233061 4.37809186 -10.0233061 4.37809186 0 0 Z " fill="#4E3A4F" transform="translate(78,93)"/>
<path d="M0 0 C0.81339844 0.16242188 1.62679687 0.32484375 2.46484375 0.4921875 C6.53643948 1.07705761 10.45709912 1.14651302 14.5625 1.125 C15.30435547 1.12886719 16.04621094 1.13273437 16.81054688 1.13671875 C20.66500306 1.12985418 24.25431062 0.93456804 28 0 C27.01 0.495 27.01 0.495 26 1 C26 1.66 26 2.32 26 3 C22.41682042 3.08720919 18.83391433 3.14046112 15.25 3.1875 C14.23421875 3.21263672 13.2184375 3.23777344 12.171875 3.26367188 C11.1921875 3.27333984 10.2125 3.28300781 9.203125 3.29296875 C7.85202637 3.31653442 7.85202637 3.31653442 6.47363281 3.34057617 C3.54691237 2.93761772 2.18658651 1.9344597 0 0 Z " fill="#89350A" transform="translate(46,92)"/>
<path d="M0 0 C0.66 0 1.32 0 2 0 C2.144375 0.61875 2.28875 1.2375 2.4375 1.875 C2.93152225 4.03258322 2.93152225 4.03258322 4 6 C1.525 5.505 1.525 5.505 -1 5 C-1 4.34 -1 3.68 -1 3 C-7.6 2.67 -14.2 2.34 -21 2 C-21 1.67 -21 1.34 -21 1 C-18.4374282 0.97289877 -15.87514635 0.95311229 -13.3125 0.9375 C-12.59126953 0.92912109 -11.87003906 0.92074219 -11.12695312 0.91210938 C-7.28444618 0.89456368 -3.73360474 1.06475779 0 2 C0 1.34 0 0.68 0 0 Z " fill="#CF8D0E" transform="translate(72,25)"/>
<path d="M0 0 C0.66 0 1.32 0 2 0 C3.2890625 1.42578125 3.2890625 1.42578125 4.625 3.3125 C5.07101563 3.92738281 5.51703125 4.54226562 5.9765625 5.17578125 C7 7 7 7 7 10 C7.66 10 8.32 10 9 10 C9.66 11.98 10.32 13.96 11 16 C6.47294663 12.85621294 4.41995531 9.83991063 2 5 C2 4.34 2 3.68 2 3 C1.34 3 0.68 3 0 3 C0 2.01 0 1.02 0 0 Z " fill="#4F565E" transform="translate(94,23)"/>
<path d="M0 0 C0.99 0.33 1.98 0.66 3 1 C0.58449329 4.27818768 -1.14508155 6.5934757 -5 8 C-8.453125 8.1953125 -8.453125 8.1953125 -12.25 8.125 C-13.51328125 8.10695313 -14.7765625 8.08890625 -16.078125 8.0703125 C-17.04234375 8.04710938 -18.0065625 8.02390625 -19 8 C-19 7.67 -19 7.34 -19 7 C-18.11957031 6.87882812 -17.23914062 6.75765625 -16.33203125 6.6328125 C-15.17058594 6.46523437 -14.00914063 6.29765625 -12.8125 6.125 C-11.08966797 5.88136719 -11.08966797 5.88136719 -9.33203125 5.6328125 C-6.27266476 5.05178393 -3.75689585 4.44144828 -1 3 C-0.67 2.01 -0.34 1.02 0 0 Z " fill="#BE6212" transform="translate(72,71)"/>
<path d="M0 0 C0.556875 0.226875 1.11375 0.45375 1.6875 0.6875 C-1.17948342 4.18163605 -3.15400148 5.97586874 -7.625 6.5 C-9.4503125 6.5928125 -9.4503125 6.5928125 -11.3125 6.6875 C-4.51779801 -0.61051325 -4.51779801 -0.61051325 0 0 Z " fill="#BFBE61" transform="translate(44.3125,13.3125)"/>
<path d="M0 0 C0.66 0.33 1.32 0.66 2 1 C2.05429959 2.74965358 2.09292823 4.49979787 2.125 6.25 C2.14820312 7.22453125 2.17140625 8.1990625 2.1953125 9.203125 C1.99660912 12.04855741 1.57242336 13.64136496 0 16 C-2.125 16.75 -2.125 16.75 -4 17 C-3.67 16.34 -3.34 15.68 -3 15 C-2.34 15 -1.68 15 -1 15 C-0.67 12.03 -0.34 9.06 0 6 C-0.33 6 -0.66 6 -1 6 C-1.042721 4.33388095 -1.04063832 2.66617115 -1 1 C-0.67 0.67 -0.34 0.34 0 0 Z " fill="#CE8C17" transform="translate(77,61)"/>
<path d="M0 0 C0.99 0 1.98 0 3 0 C1.25 3.875 1.25 3.875 -1 5 C-2.99960012 5.039992 -5.00047242 5.04346799 -7 5 C-7.33 4.01 -7.66 3.02 -8 2 C-6.865625 1.855625 -5.73125 1.71125 -4.5625 1.5625 C-1.19222799 1.38828522 -1.19222799 1.38828522 0 0 Z " fill="#B06706" transform="translate(83,51)"/>
<path d="M0 0 C2.475 0.99 2.475 0.99 5 2 C5 2.66 5 3.32 5 4 C8.82517513 6.39073445 12.59665524 6.55966552 17 7 C17 7.33 17 7.66 17 8 C14.69 8 12.38 8 10 8 C9.67 8.66 9.34 9.32 9 10 C9 9.34 9 8.68 9 8 C8.443125 7.7525 7.88625 7.505 7.3125 7.25 C4.57589087 5.77075182 2.32349131 4.06532561 0 2 C0 1.34 0 0.68 0 0 Z " fill="#C6980B" transform="translate(65,45)"/>
<path d="M0 0 C1 3 1 3 0.3125 5 C-1.20795405 7.31688236 -2.634418 8.56631394 -5 10 C-5.99 10 -6.98 10 -8 10 C-8 10.66 -8 11.32 -8 12 C-8.66 11.67 -9.32 11.34 -10 11 C-6.49364791 6.11615245 -6.49364791 6.11615245 -3.875 5.5 C-3.25625 5.335 -2.6375 5.17 -2 5 C-0.70339566 2.50965614 -0.70339566 2.50965614 0 0 Z " fill="#7B2713" transform="translate(101,69)"/>
<path d="M0 0 C4.62 0.66 9.24 1.32 14 2 C13.67 2.99 13.34 3.98 13 5 C11.58217855 4.93940934 10.16555534 4.85045877 8.75 4.75 C7.56664062 4.68039063 7.56664062 4.68039063 6.359375 4.609375 C4 4 4 4 0 0 Z " fill="#CB8C16" transform="translate(33,49)"/>
<path d="M0 0 C-0.50603992 2.16874252 -0.99983813 3.99967627 -2 6 C-2.66 6 -3.32 6 -4 6 C-4.33 7.32 -4.66 8.64 -5 10 C-5.99 10 -6.98 10 -8 10 C-7.61508669 5.50934475 -5.14531178 0 0 0 Z " fill="#D4810C" transform="translate(96,69)"/>
<path d="M0 0 C3.78383679 0.92493788 5.56693694 1.39371171 7.875 4.625 C8.431875 5.800625 8.431875 5.800625 9 7 C3.49411765 6.51058824 3.49411765 6.51058824 1.125 4.0625 C0 2 0 2 0 0 Z " fill="#521C12" transform="translate(33,86)"/>
<path d="M0 0 C2.97 0.495 2.97 0.495 6 1 C6 1.66 6 2.32 6 3 C6.99 3 7.98 3 9 3 C9.33 4.32 9.66 5.64 10 7 C10.66 7 11.32 7 12 7 C12.33 7.99 12.66 8.98 13 10 C12.34 10 11.68 10 11 10 C11 9.34 11 8.68 11 8 C10.484375 7.773125 9.96875 7.54625 9.4375 7.3125 C6.09033884 5.51018245 2.96109508 3.38717496 0 1 C0 0.67 0 0.34 0 0 Z " fill="#D5A114" transform="translate(74,26)"/>
<path d="M0 0 C0.66 0.33 1.32 0.66 2 1 C0.54964147 3.90071706 -1.09262975 4.57724435 -4 6 C-6.67862483 6.52580413 -9.27180274 6.76879684 -12 7 C-12.33 6.34 -12.66 5.68 -13 5 C-11.88625 4.87625 -10.7725 4.7525 -9.625 4.625 C-5.96896323 4.3534187 -5.96896323 4.3534187 -4 2 C-2 0.8125 -2 0.8125 0 0 Z " fill="#DB9120" transform="translate(70,69)"/>
<path d="M0 0 C0.33 0 0.66 0 1 0 C1.33 5.28 1.66 10.56 2 16 C2.66 16 3.32 16 4 16 C4 16.99 4 17.98 4 19 C3.01 18.67 2.02 18.34 1 18 C-0.32594359 12.03325384 -0.0884587 6.07416385 0 0 Z " fill="#D29525" transform="translate(20,47)"/>
<path d="M0 0 C2.00720923 0.28674418 4.0085944 0.61866701 6 1 C5.01 1.495 5.01 1.495 4 2 C4 2.66 4 3.32 4 4 C3.34 4 2.68 4 2 4 C1.67 4.66 1.34 5.32 1 6 C0.34 5.67 -0.32 5.34 -1 5 C-1.33 5.66 -1.66 6.32 -2 7 C-1.125 1.125 -1.125 1.125 0 0 Z " fill="#E3C729" transform="translate(30,24)"/>
<path d="M0 0 C3.07106515 1.53553257 3.67187576 3.92116654 5 7 C5 8.32 5 9.64 5 11 C4.34 11 3.68 11 3 11 C3 10.01 3 9.02 3 8 C2.01 7.67 1.02 7.34 0 7 C0 4.69 0 2.38 0 0 Z " fill="#E7CB28" transform="translate(37,68)"/>
<path d="M0 0 C-0.33 1.65 -0.66 3.3 -1 5 C-2.65 5.33 -4.3 5.66 -6 6 C-5.67 4.35 -5.34 2.7 -5 1 C-2 0 -2 0 0 0 Z " fill="#E9D750" transform="translate(37,19)"/>
<path d="M0 0 C5.08938811 1.59043379 8.87456643 4.7446951 13 8 C12.01 8.33 11.02 8.66 10 9 C8 7 8 7 7 5 C6.01 4.690625 5.02 4.38125 4 4.0625 C3.01 3.711875 2.02 3.36125 1 3 C0.67 2.01 0.34 1.02 0 0 Z " fill="#D9CB45" transform="translate(78,15)"/>
<path d="M0 0 C2.3828125 -0.29296875 2.3828125 -0.29296875 5.125 -0.1875 C6.03507812 -0.16042969 6.94515625 -0.13335937 7.8828125 -0.10546875 C8.58148438 -0.07066406 9.28015625 -0.03585937 10 0 C5.82744729 3.58050131 3.33135955 3.26656798 -2 3 C-1.34 2.01 -0.68 1.02 0 0 Z " fill="#E7DD3B" transform="translate(46,13)"/>
<path d="M0 0 C0.33 0.99 0.66 1.98 1 3 C-0.21484375 4.82421875 -0.21484375 4.82421875 -1.9375 6.6875 C-2.50339844 7.31011719 -3.06929687 7.93273437 -3.65234375 8.57421875 C-4.09707031 9.04472656 -4.54179687 9.51523437 -5 10 C-5.66 9.67 -6.32 9.34 -7 9 C-5.625 6.5 -5.625 6.5 -4 4 C-3.34 4 -2.68 4 -2 4 C-1.34 2.68 -0.68 1.36 0 0 Z " fill="#BEB265" transform="translate(30,21)"/>
<path d="M0 0 C2.56687367 3.8503105 1.83288724 5.58569763 1 10 C-0.65 10.33 -2.3 10.66 -4 11 C-4 10.34 -4 9.68 -4 9 C-3.01 8.67 -2.02 8.34 -1 8 C-0.67 5.36 -0.34 2.72 0 0 Z " fill="#DFBF27" transform="translate(84,38)"/>
<path d="M0 0 C1.9375 1 1.9375 1 4 3 C4.66549451 5.69924572 4.81680763 8.20631637 5 11 C4.67 10.01 4.34 9.02 4 8 C3.34 8 2.68 8 2 8 C1.34 5.36 0.68 2.72 0 0 Z " fill="#605142" transform="translate(101,36)"/>
<path d="M0 0 C3 3.75 3 3.75 3 6 C3.66 6.33 4.32 6.66 5 7 C3.02 7.99 3.02 7.99 1 9 C0 8 0 8 -0.09765625 6.15234375 C-0.06510417 4.1015625 -0.03255208 2.05078125 0 0 Z " fill="#CEA525" transform="translate(42,71)"/>
<path d="M0 0 C1.46726798 3.81489674 0.43336419 6.29011622 -1 10 C-1.66 9.67 -2.32 9.34 -3 9 C-3 5.69727388 -2.43339634 2.43339634 0 0 Z " fill="#AB5606" transform="translate(77,66)"/>
<path d="M0 0 C0.66 0 1.32 0 2 0 C2.33 1.98 2.66 3.96 3 6 C1.68 6 0.36 6 -1 6 C-0.67 4.02 -0.34 2.04 0 0 Z " fill="#EAD52F" transform="translate(51,37)"/>
<path d="M0 0 C1.32 0.33 2.64 0.66 4 1 C4 1.99 4 2.98 4 4 C5.65 4.33 7.3 4.66 9 5 C7.3125 5.6875 7.3125 5.6875 5 6 C2.25 4.75 2.25 4.75 0 3 C0 2.01 0 1.02 0 0 Z " fill="#CB7C18" transform="translate(34,81)"/>
<path d="M0 0 C0 3 0 3 -2.3125 5.6875 C-5 8 -5 8 -8 8 C-7.67 7.01 -7.34 6.02 -7 5 C-6.34 5 -5.68 5 -5 5 C-5 4.34 -5 3.68 -5 3 C-2.5 1.375 -2.5 1.375 0 0 Z " fill="#641E18" transform="translate(98,76)"/>
<path d="M0 0 C2.31 0 4.62 0 7 0 C6.67 0.99 6.34 1.98 6 3 C4.35 3.33 2.7 3.66 1 4 C0.67 2.68 0.34 1.36 0 0 Z " fill="#E4BD1F" transform="translate(74,78)"/>
<path d="M0 0 C2.01822917 0.06510417 4.03645833 0.13020833 6.0546875 0.1953125 C5.0646875 1.6803125 5.0646875 1.6803125 4.0546875 3.1953125 C1.4146875 2.8653125 -1.2253125 2.5353125 -3.9453125 2.1953125 C-1.9453125 0.1953125 -1.9453125 0.1953125 0 0 Z " fill="#E0A51A" transform="translate(65.9453125,84.8046875)"/>
<path d="M0 0 C3.3 1.65 6.6 3.3 10 5 C10 5.66 10 6.32 10 7 C6.12697862 5.85569823 2.99736561 4.76679902 0 2 C0 1.34 0 0.68 0 0 Z " fill="#9C4B1E" transform="translate(29,81)"/>
<path d="M0 0 C2.96865509 2.54456151 4.3619751 5.48994665 6 9 C5.34 9.66 4.68 10.32 4 11 C3.32880451 9.5437455 2.66318193 8.08492133 2 6.625 C1.62875 5.81289062 1.2575 5.00078125 0.875 4.1640625 C0 2 0 2 0 0 Z " fill="#914605" transform="translate(41,66)"/>
<path d="M0 0 C0.33 0.66 0.66 1.32 1 2 C1.99 1.67 2.98 1.34 4 1 C4 1.99 4 2.98 4 4 C0.625 4.125 0.625 4.125 -3 4 C-3.66 3.34 -4.32 2.68 -5 2 C-3.35 1.34 -1.7 0.68 0 0 Z " fill="#D9BA24" transform="translate(75,46)"/>
<path d="M0 0 C-1.28524261 0.86380259 -2.57842419 1.71580369 -3.875 2.5625 C-4.59429687 3.03816406 -5.31359375 3.51382813 -6.0546875 4.00390625 C-6.69664063 4.33261719 -7.33859375 4.66132812 -8 5 C-8.66 4.67 -9.32 4.34 -10 4 C-9.01 3.67 -8.02 3.34 -7 3 C-7 2.34 -7 1.68 -7 1 C-3.375 -1.125 -3.375 -1.125 0 0 Z " fill="#3B4F79" transform="translate(89,93)"/>
<path d="M0 0 C-0.125 1.875 -0.125 1.875 -1 4 C-4.0625 5.25 -4.0625 5.25 -7 6 C-6.67 5.34 -6.34 4.68 -6 4 C-5.34 4 -4.68 4 -4 4 C-4 3.01 -4 2.02 -4 1 C-2 0 -2 0 0 0 Z " fill="#A64F09" transform="translate(82,86)"/>
<path d="M0 0 C1.32 0.33 2.64 0.66 4 1 C4 1.66 4 2.32 4 3 C3.34 3.66 2.68 4.32 2 5 C-1.125 4.625 -1.125 4.625 -4 4 C-2.68 3.67 -1.36 3.34 0 3 C0 2.01 0 1.02 0 0 Z " fill="#D7B00E" transform="translate(70,20)"/>
<path d="M0 0 C2.5654594 2.5654594 2.54046087 4.47686668 3 8 C2.01 8.495 2.01 8.495 1 9 C-0.61949011 6.42786866 -1.04408751 5.32330841 -0.625 2.25 C-0.41875 1.5075 -0.2125 0.765 0 0 Z " fill="#DEB32A" transform="translate(44,55)"/>
<path d="M0 0 C-1.12073862 0.83905565 -2.24674547 1.67107831 -3.375 2.5 C-4.00148438 2.9640625 -4.62796875 3.428125 -5.2734375 3.90625 C-7 5 -7 5 -9 5 C-9 4.34 -9 3.68 -9 3 C-8.34 3 -7.68 3 -7 3 C-6.67 2.01 -6.34 1.02 -6 0 C-3.42525708 -0.99667468 -2.51072708 -1.25536354 0 0 Z " fill="#E1B719" transform="translate(46,26)"/>
<path d="M0 0 C-0.33 1.32 -0.66 2.64 -1 4 C-3.31 4 -5.62 4 -8 4 C-2 0 -2 0 0 0 Z " fill="#D69F32" transform="translate(74,78)"/>
<path d="M0 0 C0.99 0 1.98 0 3 0 C3.33 0.66 3.66 1.32 4 2 C4.99 2.66 5.98 3.32 7 4 C4.69 4 2.38 4 0 4 C0 2.68 0 1.36 0 0 Z " fill="#DE9D1F" transform="translate(46,66)"/>
<path d="M0 0 C2.31 0 4.62 0 7 0 C7 0.99 7 1.98 7 3 C6.01 3.33 5.02 3.66 4 4 C3.67 3.34 3.34 2.68 3 2 C2.01 1.34 1.02 0.68 0 0 Z " fill="#F1DC3F" transform="translate(43,35)"/>
</svg>
